<svg width="304" height="304" viewBox="0 0 304 304" fill="none" xmlns="http://www.w3.org/2000/svg">
<circle cx="151.656" cy="151.656" r="151.656" fill="black"/>
<path d="M187.773 105.703C173.005 177.357 103.556 202.473 70.5694 206.072C65.1532 206.072 63.3478 211.488 70.5694 211.488C173.884 207.184 215.661 144.312 223.873 112.806C223.962 112.464 224.317 112.285 224.652 112.397L239.184 117.241C239.648 117.396 240.094 116.966 239.958 116.497L220.717 50.025C220.586 49.573 220.012 49.4356 219.691 49.7793L169.018 103.947C168.655 104.335 168.927 104.968 169.458 104.968H187.181C187.564 104.968 187.85 105.328 187.773 105.703Z" fill="#6493E6"/>
<path d="M126.538 195.66C126.538 195.407 126.695 195.181 126.932 195.092L169.869 178.991V232.547C169.869 232.882 169.597 233.153 169.262 233.153H127.145C126.81 233.153 126.538 232.882 126.538 232.547V195.66Z" fill="#6493E6"/>
<path d="M116.531 97.9977L152.32 149.892C152.413 150.027 152.448 150.192 152.408 150.352C152.029 151.859 149.607 160.009 139.828 168.158C130.419 175.999 122.373 179.753 120.42 180.605C120.156 180.72 119.854 180.623 119.696 180.383L64.6469 96.9217C64.3756 96.5105 64.6818 95.9645 65.1742 95.9815L116.052 97.7359C116.244 97.7425 116.422 97.8396 116.531 97.9977Z" fill="#F5F5F5"/>
<path d="M126.538 195.66C126.538 195.407 126.695 195.181 126.932 195.092L169.869 178.991V232.547C169.869 232.882 169.597 233.153 169.262 233.153H127.145C126.81 233.153 126.538 232.882 126.538 232.547V195.66Z" fill="#F5F5F5"/>
<path d="M187.773 105.703C173.005 177.357 103.556 202.473 70.5694 206.072C65.1532 206.072 63.3478 211.488 70.5694 211.488C173.884 207.184 215.661 144.312 223.873 112.806C223.962 112.464 224.317 112.285 224.652 112.397L239.184 117.241C239.648 117.396 240.094 116.966 239.958 116.497L220.717 50.025C220.586 49.573 220.012 49.4356 219.691 49.7793L169.018 103.947C168.655 104.335 168.927 104.968 169.458 104.968H187.181C187.564 104.968 187.85 105.328 187.773 105.703Z" fill="#6493E6"/>
</svg>
