<svg width="304" height="304" viewBox="0 0 304 304" fill="none" xmlns="http://www.w3.org/2000/svg">
<rect width="303.312" height="303.312" rx="60.6623" fill="black"/>
<path d="M187.773 100.703C173.005 172.357 103.556 197.473 70.5694 201.072C65.1532 201.072 63.3478 206.488 70.5694 206.488C173.884 202.184 215.661 139.312 223.873 107.806C223.962 107.464 224.317 107.285 224.652 107.397L239.184 112.241C239.648 112.395 240.094 111.966 239.958 111.497L220.717 45.025C220.586 44.5729 220.012 44.4356 219.691 44.7792L169.018 98.9471C168.655 99.3347 168.927 99.9682 169.458 99.9682H187.181C187.564 99.9682 187.85 100.328 187.773 100.703Z" fill="#6493E6"/>
<path d="M126.538 190.66C126.538 190.407 126.695 190.181 126.932 190.092L169.869 173.991V227.547C169.869 227.882 169.597 228.153 169.262 228.153H127.145C126.81 228.153 126.538 227.882 126.538 227.547V190.66Z" fill="#6493E6"/>
<path d="M116.531 92.9978L152.32 144.892C152.413 145.027 152.448 145.192 152.408 145.352C152.029 146.859 149.607 155.009 139.828 163.158C130.419 170.999 122.373 174.753 120.42 175.605C120.156 175.72 119.854 175.623 119.696 175.383L64.6469 91.9217C64.3756 91.5105 64.6818 90.9645 65.1742 90.9815L116.052 92.7359C116.244 92.7425 116.422 92.8396 116.531 92.9978Z" fill="#F5F5F5"/>
<path d="M126.538 190.66C126.538 190.407 126.695 190.181 126.932 190.092L169.869 173.991V227.547C169.869 227.882 169.597 228.153 169.262 228.153H127.145C126.81 228.153 126.538 227.882 126.538 227.547V190.66Z" fill="#F5F5F5"/>
<path d="M187.773 100.703C173.005 172.357 103.556 197.473 70.5694 201.072C65.1532 201.072 63.3478 206.488 70.5694 206.488C173.884 202.184 215.661 139.312 223.873 107.806C223.962 107.464 224.317 107.285 224.652 107.397L239.184 112.241C239.648 112.396 240.094 111.966 239.958 111.497L220.717 45.025C220.586 44.5729 220.012 44.4356 219.691 44.7792L169.018 98.9471C168.655 99.3347 168.927 99.9682 169.458 99.9682H187.181C187.564 99.9682 187.85 100.328 187.773 100.703Z" fill="#6493E6"/>
</svg>
