<svg width="2958" height="1201" viewBox="0 0 2958 1201" fill="none" xmlns="http://www.w3.org/2000/svg">
<rect width="2674" height="1201" fill="black"/>
<path d="M898.001 380.644C829.571 713.289 515.577 830.052 366.188 846.826C341.582 846.826 333.381 872.153 366.188 872.153C832.578 852.151 1022.93 561.737 1061.92 413.523C1062.74 410.41 1065.99 408.734 1069.03 409.778L1127.31 429.775C1131.48 431.206 1135.55 427.367 1134.35 423.123L1049.63 121.857C1048.46 117.721 1043.2 116.48 1040.32 119.659L817.408 364.918C814.215 368.43 816.705 374.063 821.451 374.063H892.675C896.114 374.063 898.694 377.277 898.001 380.644Z" fill="white"/>
<path d="M620.45 799.924C620.45 797.664 621.841 795.636 623.949 794.822L817.298 720.193V967.991C817.298 971.011 814.85 973.459 811.83 973.459H625.918C622.898 973.459 620.45 971.011 620.45 967.991V799.924Z" fill="white"/>
<path d="M575.761 342.615L736.99 583.244C737.794 584.444 738.093 585.891 737.725 587.287C735.312 596.424 723.452 632.982 680.831 669.539C640.909 703.781 606.385 721.357 594.773 726.772C592.377 727.89 589.572 727.016 588.146 724.79L341.977 340.636C339.598 336.923 342.367 332.065 346.775 332.222L571.412 340.195C573.166 340.257 574.784 341.157 575.761 342.615Z" fill="black"/>
<path d="M620.45 799.924C620.45 797.664 621.841 795.636 623.949 794.822L817.298 720.193V967.991C817.298 971.011 814.85 973.459 811.83 973.459H625.918C622.898 973.459 620.45 971.011 620.45 967.991V799.924Z" fill="black"/>
<path d="M898.001 380.644C829.571 713.289 515.577 830.052 366.188 846.826C341.582 846.826 333.381 872.153 366.188 872.153C832.578 852.151 1022.93 561.737 1061.92 413.523C1062.74 410.41 1065.99 408.734 1069.03 409.778L1127.31 429.775C1131.48 431.206 1135.55 427.367 1134.35 423.123L1049.63 121.857C1048.46 117.721 1043.2 116.48 1040.32 119.659L817.408 364.918C814.215 368.43 816.705 374.063 821.451 374.063H892.675C896.114 374.063 898.694 377.277 898.001 380.644Z" fill="#6493E6"/>
<path d="M1159.48 983.748C1134.04 983.748 1111.46 979.509 1091.74 971.031C1072.19 962.38 1056.7 949.404 1045.28 932.102C1034.04 914.627 1028.41 892.74 1028.41 866.441C1028.41 844.295 1032.31 825.609 1040.09 810.383C1047.88 795.158 1058.61 782.787 1072.27 773.271C1085.94 763.755 1101.69 756.574 1119.51 751.73C1137.33 746.712 1156.36 743.339 1176.6 741.608C1199.27 739.532 1217.52 737.369 1231.36 735.12C1245.21 732.698 1255.24 729.324 1261.47 724.999C1267.87 720.5 1271.07 714.185 1271.07 706.053V704.755C1271.07 691.433 1266.49 681.138 1257.32 673.872C1248.15 666.605 1235.78 662.971 1220.2 662.971C1203.42 662.971 1189.93 666.605 1179.72 673.872C1169.51 681.138 1163.02 691.173 1160.25 703.977L1043.21 699.824C1046.67 675.602 1055.58 653.975 1069.94 634.942C1084.47 615.737 1104.37 600.685 1129.63 589.785C1155.06 578.711 1185.6 573.175 1221.24 573.175C1246.68 573.175 1270.12 576.203 1291.57 582.258C1313.03 588.141 1331.71 596.792 1347.63 608.211C1363.55 619.457 1375.83 633.299 1384.49 649.736C1393.31 666.172 1397.72 684.945 1397.72 706.053V977H1278.34V921.461H1275.22C1268.13 934.957 1259.05 946.376 1247.97 955.719C1237.07 965.062 1224.18 972.069 1209.3 976.74C1194.6 981.412 1177.99 983.748 1159.48 983.748ZM1198.66 900.699C1212.33 900.699 1224.62 897.931 1235.52 892.394C1246.59 886.857 1255.41 879.245 1261.99 869.556C1268.56 859.693 1271.85 848.274 1271.85 835.298V797.407C1268.22 799.31 1263.81 801.04 1258.61 802.597C1253.6 804.155 1248.06 805.625 1242 807.009C1235.95 808.393 1229.72 809.605 1223.32 810.643C1216.92 811.681 1210.78 812.632 1204.89 813.498C1192.95 815.401 1182.75 818.342 1174.27 822.321C1165.96 826.301 1159.56 831.491 1155.06 837.893C1150.74 844.122 1148.57 851.562 1148.57 860.213C1148.57 873.362 1153.25 883.397 1162.59 890.318C1172.11 897.238 1184.13 900.699 1198.66 900.699ZM1587.2 983.748C1561.76 983.748 1539.18 979.509 1519.46 971.031C1499.91 962.38 1484.42 949.404 1473 932.102C1461.76 914.627 1456.13 892.74 1456.13 866.441C1456.13 844.295 1460.03 825.609 1467.81 810.383C1475.6 795.158 1486.33 782.787 1499.99 773.271C1513.66 763.755 1529.41 756.574 1547.23 751.73C1565.05 746.712 1584.08 743.339 1604.32 741.608C1626.99 739.532 1645.24 737.369 1659.08 735.12C1672.93 732.698 1682.96 729.324 1689.19 724.999C1695.59 720.5 1698.79 714.185 1698.79 706.053V704.755C1698.79 691.433 1694.21 681.138 1685.04 673.872C1675.87 666.605 1663.5 662.971 1647.93 662.971C1631.14 662.971 1617.65 666.605 1607.44 673.872C1597.23 681.138 1590.74 691.173 1587.97 703.977L1470.93 699.824C1474.39 675.602 1483.3 653.975 1497.66 634.942C1512.19 615.737 1532.09 600.685 1557.35 589.785C1582.78 578.711 1613.32 573.175 1648.96 573.175C1674.4 573.175 1697.84 576.203 1719.3 582.258C1740.75 588.141 1759.44 596.792 1775.35 608.211C1791.27 619.457 1803.56 633.299 1812.21 649.736C1821.03 666.172 1825.44 684.945 1825.44 706.053V977H1706.06V921.461H1702.95C1695.85 934.957 1686.77 946.376 1675.69 955.719C1664.79 965.062 1651.9 972.069 1637.03 976.74C1622.32 981.412 1605.71 983.748 1587.2 983.748ZM1626.38 900.699C1640.05 900.699 1652.34 897.931 1663.24 892.394C1674.31 886.857 1683.13 879.245 1689.71 869.556C1696.28 859.693 1699.57 848.274 1699.57 835.298V797.407C1695.94 799.31 1691.53 801.04 1686.34 802.597C1681.32 804.155 1675.78 805.625 1669.73 807.009C1663.67 808.393 1657.44 809.605 1651.04 810.643C1644.64 811.681 1638.5 812.632 1632.61 813.498C1620.67 815.401 1610.47 818.342 1601.99 822.321C1593.68 826.301 1587.28 831.491 1582.78 837.893C1578.46 844.122 1576.3 851.562 1576.3 860.213C1576.3 873.362 1580.97 883.397 1590.31 890.318C1599.83 897.238 1611.85 900.699 1626.38 900.699ZM2048.14 982.71C2018.72 982.71 1991.99 975.097 1967.94 959.871C1943.89 944.646 1924.69 921.807 1910.33 891.356C1895.97 860.905 1888.79 823.1 1888.79 777.942C1888.79 731.054 1896.23 692.471 1911.11 662.193C1925.99 631.915 1945.45 609.509 1969.5 594.975C1993.72 580.442 2019.76 573.175 2047.62 573.175C2068.55 573.175 2086.46 576.808 2101.34 584.075C2116.22 591.169 2128.5 600.339 2138.19 611.585C2147.88 622.831 2155.23 634.51 2160.25 646.621H2162.85V445.487H2289.76V977H2164.14V912.378H2160.25C2154.89 924.662 2147.28 936.168 2137.41 946.895C2127.55 957.622 2115.18 966.273 2100.3 972.848C2085.59 979.422 2068.21 982.71 2048.14 982.71ZM2092.26 883.83C2107.65 883.83 2120.8 879.504 2131.7 870.853C2142.6 862.029 2151 849.658 2156.88 833.741C2162.76 817.823 2165.7 799.137 2165.7 777.683C2165.7 755.882 2162.76 737.11 2156.88 721.365C2151.17 705.621 2142.78 693.509 2131.7 685.031C2120.8 676.553 2107.65 672.314 2092.26 672.314C2076.51 672.314 2063.19 676.64 2052.29 685.291C2041.39 693.942 2033.08 706.14 2027.37 721.884C2021.84 737.629 2019.07 756.228 2019.07 777.683C2019.07 799.137 2021.92 817.823 2027.63 833.741C2033.34 849.658 2041.56 862.029 2052.29 870.853C2063.19 879.504 2076.51 883.83 2092.26 883.83Z" fill="#EBEBEB"/>
<path d="M898.001 380.646C829.571 713.29 515.577 830.053 366.188 846.827C341.582 846.827 333.381 872.154 366.188 872.154C832.578 852.152 1022.93 561.738 1061.92 413.524C1062.74 410.411 1065.98 408.735 1069.03 409.779L1127.31 429.777C1131.48 431.207 1135.55 427.368 1134.35 423.124L1049.62 121.858C1048.46 117.722 1043.2 116.481 1040.31 119.66L817.408 364.919C814.215 368.431 816.705 374.064 821.451 374.064H892.675C896.113 374.064 898.694 377.278 898.001 380.646Z" fill="white"/>
<path d="M620.45 799.925C620.45 797.665 621.841 795.637 623.949 794.824L817.298 720.194V967.992C817.298 971.012 814.85 973.46 811.83 973.46H625.918C622.898 973.46 620.45 971.012 620.45 967.992V799.925Z" fill="white"/>
<path d="M575.761 342.616L736.99 583.245C737.794 584.445 738.093 585.892 737.725 587.288C735.312 596.425 723.452 632.983 680.831 669.54C640.909 703.783 606.385 721.358 594.773 726.774C592.377 727.891 589.572 727.017 588.146 724.791L341.977 340.637C339.597 336.924 342.367 332.066 346.775 332.223L571.412 340.196C573.166 340.258 574.784 341.158 575.761 342.616Z" fill="#EEEEEE"/>
<path d="M620.45 799.925C620.45 797.665 621.841 795.637 623.949 794.824L817.298 720.194V967.992C817.298 971.012 814.85 973.46 811.83 973.46H625.918C622.898 973.46 620.45 971.012 620.45 967.992V799.925Z" fill="white"/>
<path d="M898.001 380.646C829.57 713.29 515.577 830.053 366.188 846.827C341.582 846.827 333.381 872.154 366.188 872.154C832.578 852.152 1022.93 561.738 1061.92 413.524C1062.74 410.411 1065.98 408.735 1069.03 409.779L1127.31 429.777C1131.48 431.207 1135.55 427.368 1134.35 423.124L1049.62 121.858C1048.46 117.722 1043.2 116.481 1040.31 119.66L817.408 364.919C814.215 368.431 816.705 374.064 821.451 374.064H892.675C896.113 374.064 898.694 377.278 898.001 380.646Z" fill="#6493E6"/>
</svg>
